<?xml version="1.0" ?><svg id="Layer_1" style="enable-background:new 0 0 52 52;" version="1.1" viewBox="0 0 52 52" xml:space="preserve" xmlns="http://www.w3.org/2000/svg" xmlns:xlink="http://www.w3.org/1999/xlink"><style type="text/css">
	.st0{fill:#231F20;}
</style><g><g><path class="st0" d="M43.1738853,26.0536747c0.6447334,1.3486652,0.9811134,2.9456997,0.32267,4.3561916    c-0.7401428,1.5855045-3.3063622,2.9994774-4.4926682,1.027998c-0.5591965-0.9293079-0.9083405-2.6197433-0.7121086-3.6550713    c0.12257-0.6466866,0.480278-1.3535595,1.0005341-1.7797928c0.6686745-0.5478287,3.6210022-1.1607113,4.0029869,0.2699375    c0.3731537,1.397583,2.5441818,0.8046837,2.1696281-0.5981388c-0.7882118-2.9521046-5.2156448-3.2113914-7.3508682-1.5968857    c-2.5641518,1.9388275-2.4411507,5.3404102-1.259285,8.037817c1.2749367,2.9098282,4.6345558,3.201622,7.0226212,1.3465805    c2.7167015-2.1103306,2.6007652-5.69631,1.239296-8.5442543C44.4924507,23.612257,42.551815,24.7524166,43.1738853,26.0536747    L43.1738853,26.0536747z"/></g><g><path class="st0" d="M35.9193649,39.0961075c3.6499977,0.0055313,9.2987671-1.092804,11.9503593,2.1168251    c0.7937355,0.9607849,1.8242531,5.5875893,0.9374237,6.7856865c-0.9778061,1.3210068-2.9679794,0.7702217-4.4071312,0.769928    c-3.1065369-0.0006294-6.7844963,0.5525551-9.8333626-0.0019951c-1.8892288-0.3436279-1.5281448-1.0174675-1.5160522-2.8198547    c0.0191193-2.8491096-0.4834213-5.9366722,3.1587257-6.8813324c1.4005203-0.3632507,0.806778-2.5340195-0.5981407-2.1696281    c-2.3802338,0.6173592-4.1033764,2.1060295-4.6136532,4.5897369c-0.504961,2.4578209-0.5938797,6.0690689-0.1187649,8.5372124    c0.0755196,0.3923149,0.4312801,0.6660194,0.7857437,0.7857437c1.9212189,0.6489296,4.3910332,0.2084236,6.4140587,0.2088356    c2.5754013,0.0005226,5.1508064,0.0010452,7.7262115,0.0015678c3.4516945,0.0007019,5.0026703,0.6429901,5.2523651-3.0202141    c0.2311325-3.3908958-0.0057068-7.4646416-2.7959824-9.8769417c-2.9393349-2.5411644-8.8034325-1.2702103-12.3418007-1.2755699    C34.4715042,36.8439102,34.4692955,39.0939064,35.9193649,39.0961075L35.9193649,39.0961075z"/></g><g><path class="st0" d="M13.195488,33.4771461c0.0466185,2.6747627,0.3265066,5.3964653,2.6236496,7.1167336    c1.0745449,0.8046951,2.3844051,1.3250084,3.63414,1.7978592c1.6654148,0.6301308,3.4534206,0.5250015,5.0987701,1.1485138    c1.3554077,0.5136375,1.9413567-1.6606064,0.5981407-2.1696243c-2.1911087-0.8303337-4.459734-0.7726364-6.6443081-1.8131676    c-2.6534996-1.2638855-3.0132093-3.3731499-3.0603924-6.0803146    C15.4202814,32.0309067,13.1702023,32.0263329,13.195488,33.4771461L13.195488,33.4771461z"/></g><g><path class="st0" d="M21.9504089,39.8577576c0.5049477,0.4299622,0.6761703,1.1263924,1.1553898,1.5986404    c0.6027908,0.5940208,1.2762871,0.9808846,1.8219376,1.6638069c-0.0586376-0.4544334-0.1172733-0.9088669-0.175909-1.3633041    c0.1496391-0.3054504-0.0817566,0.036602-0.2652626,0.1741333c-0.2229099,0.1670609-0.4269009,0.3509979-0.6270332,0.5446968    c-0.524107,0.5072632-1.0145893,1.0533028-1.5197735,1.5793457c-1.0031776,1.0446014,0.5856533,2.6378403,1.5909901,1.5909882    c0.5420609-0.5644417,1.060606-1.1767845,1.6442719-1.69841c0.3992348-0.3568001,0.8746014-0.5550041,1.1196156-1.0551338    c0.2440033-0.4980698,0.1590614-0.9440613-0.175909-1.3633041c-0.5463333-0.6837807-1.2394676-1.0664063-1.8219376-1.6638107    c-0.4653397-0.4772682-0.6250248-1.1470337-1.1553898-1.5986404    C22.4448166,37.3330269,20.8458424,38.9172173,21.9504089,39.8577576L21.9504089,39.8577576z"/></g><g><path class="st0" d="M25.6068363,7.5814285c-1.1945686,0.9569387-2.1675434,2.1031208-2.9465618,3.4195433    c-0.3232327,0.5462103-0.1000957,1.2024975,0.403595,1.5392132c1.1663513,0.7797041,2.2277832,1.6612606,3.2202721,2.6523275    c1.0258923,1.0244236,2.6173859-0.5660639,1.5909901-1.5909901c-1.125864-1.1242523-2.3531494-2.1200609-3.6756439-3.0041466    c0.134531,0.513072,0.2690639,1.0261431,0.403595,1.5392141c0.6872349-1.1613207,1.5424976-2.1212444,2.5947437-2.9641714    C28.3278103,8.2672167,26.7267303,6.6843104,25.6068363,7.5814285L25.6068363,7.5814285z"/></g><g><path class="st0" d="M25.6011257,12.0646353c1.432024-1.4731722,5.4188156-0.2221727,6.7456532,0.7787638    c1.6146011,1.2180185,2.2922096,3.2073059,2.9441681,5.0458126c0.4805984,1.355278,2.6553192,0.7714958,2.1696281-0.5981388    c-1.0183525-2.8717346-2.2315636-5.744669-5.1629791-7.0973177c-2.2666225-1.0458937-6.3632011-1.6996603-8.2874603,0.2798891    C23.0002766,11.5125198,24.5896149,13.1052094,25.6011257,12.0646353L25.6011257,12.0646353z"/></g><g><path class="st0" d="M6.4196019,16.6656933c2.8543715-0.0358543,6.365973-0.6174946,9.1902637-0.1003971    c3.2147579,0.5885849,3.6736202,2.0129509,3.9817486,4.6564045c0.136692,1.1726856,0.5061626,3.1558552,0.1424141,4.2960796    c-0.6848907,2.1468964-5.7655458,1.2497311-7.8637075,1.2497025c-3.253665-0.0000477-6.5073309-0.0000935-9.7609968-0.0001411    c0.375,0.375,0.75,0.75,1.125,1.125c-0.0479422-2.90205-1.2836262-10.6560974,3.2419436-10.9587841    c1.4371662-0.0961227,1.447876-2.3468399,0-2.25c-6.6374946,0.4439411-5.5697956,8.4962273-5.4919434,13.2087841    c0.0100449,0.6080456,0.5072933,1.1249924,1.125,1.125c5.5771456,0.0000801,11.1561699,0.0423031,16.7331371,0.0002403    c3.6136837-0.0272541,3.2259941-1.9852638,3.141943-5.3427734c-0.0725842-2.8995266-0.2063503-6.7566528-2.9591866-8.5090742    c-3.2235136-2.0520496-9.0577497-0.7946053-12.6056156-0.750041C4.972846,14.4338655,4.9688787,16.6839161,6.4196019,16.6656933    L6.4196019,16.6656933z"/></g><g><path class="st0" d="M13.2057381,4.3121715c1.7133312,0.5387888,0.6879425,3.8472857,0.1234341,4.85848    c-0.2171221,0.3889275-0.9232855,1.519783-1.4195347,1.5537176c-0.4945908,0.0338221-1.2485685-0.8106461-1.5506029-1.126255    C9.2296953,8.4180136,8.8567305,7.2193632,8.9706755,5.6221662c0.1779518-2.4943888,2.1853552-3.2967851,4.0991545-1.5638223    c1.0711241,0.9699125,2.6671047-0.6165583,1.5909901-1.5909901c-2.1742554-1.9688087-5.8708401-2.5615146-7.376225,0.5487759    C5.826798,6.0280991,6.8921342,9.4342232,9.2014284,11.607687c0.9836941,0.9258337,1.9011192,1.769968,3.3088522,1.2940636    c1.3771572-0.4655685,2.4137287-1.8221941,3.0042601-3.0883331c1.1824617-2.5352764,1.5433702-6.6475821-1.7106638-7.6708736    C12.419384,1.7071639,11.8269901,3.8785985,13.2057381,4.3121715L13.2057381,4.3121715z"/></g></g></svg>