<?xml version="1.0" ?><!DOCTYPE svg  PUBLIC '-//W3C//DTD SVG 1.1//EN'  'http://www.w3.org/Graphics/SVG/1.1/DTD/svg11.dtd'><svg height="48px" id="Layer_1" style="enable-background:new 0 0 48 48;" version="1.1" viewBox="0 0 48 48" width="48px" xml:space="preserve" xmlns="http://www.w3.org/2000/svg" xmlns:xlink="http://www.w3.org/1999/xlink"><g><path d="M26.693,14.003h4.113c0.551,0,1.41,0,1.912,0   c0.501,0,0.911,0.45,0.911,1v21.288c0,0.55-0.45,1-1,1H16.435c-0.55,0-1-0.45-1-1V15.003c0-0.55,0.426-1,0.947-1s1.397,0,1.947,0   h4.042" style="fill:none;stroke:#231F20;stroke-miterlimit:10;"/></g><path d="M22.371,14.003v-1.135c0-1.184,0.972-2.156,2.167-2.156  c0.598,0,1.135,0.244,1.52,0.638c0.395,0.386,0.637,0.922,0.637,1.519v1.135" style="fill:none;stroke:#231F20;stroke-miterlimit:10;"/><polyline points="26.693,14.003 31.807,14.003 31.807,18.731   17.328,18.731 17.328,14.003 22.371,14.003 " style="fill:none;stroke:#231F20;stroke-miterlimit:10;"/><line style="fill:none;stroke:#231F20;stroke-miterlimit:10;" x1="20.75" x2="22.87" y1="14.003" y2="14.003"/><line style="fill:none;stroke:#231F20;stroke-miterlimit:10;" x1="26.208" x2="28.328" y1="14.003" y2="14.003"/><path d="M25.348,13.171c0,0.45-0.365,0.816-0.815,0.816l0,0  c-0.45,0-0.814-0.366-0.814-0.816l0,0c0-0.451,0.365-0.816,0.814-0.816l0,0C24.982,12.354,25.348,12.72,25.348,13.171L25.348,13.171  z" style="fill:none;stroke:#231F20;stroke-miterlimit:10;"/><line style="fill:none;stroke:#231F20;stroke-miterlimit:10;" x1="17.328" x2="31.807" y1="21.344" y2="21.344"/><line style="fill:none;stroke:#231F20;stroke-miterlimit:10;" x1="17.333" x2="21.81" y1="23.875" y2="23.875"/><line style="fill:none;stroke:#231F20;stroke-miterlimit:10;" x1="17.333" x2="31.807" y1="26.786" y2="26.786"/><line style="fill:none;stroke:#231F20;stroke-miterlimit:10;" x1="17.333" x2="31.807" y1="29.19" y2="29.19"/><line style="fill:none;stroke:#231F20;stroke-miterlimit:10;" x1="17.328" x2="31.805" y1="34.308" y2="34.308"/></svg>